M48
; DRILL file {KiCad (6.0.1)} date Tue Nov  1 11:59:50 2022
; FORMAT={-:-/ absolute / inch / decimal}
; #@! TF.CreationDate,2022-11-01T11:59:50+11:00
; #@! TF.GenerationSoftware,Kicad,Pcbnew,(6.0.1)
; #@! TF.FileFunction,Plated,1,2,PTH
FMAT,2
INCH
; #@! TA.AperFunction,Plated,PTH,ComponentDrill
T1C0.0295
; #@! TA.AperFunction,Plated,PTH,ComponentDrill
T2C0.0315
; #@! TA.AperFunction,Plated,PTH,ComponentDrill
T3C0.0354
; #@! TA.AperFunction,Plated,PTH,ComponentDrill
T4C0.0390
; #@! TA.AperFunction,Plated,PTH,ComponentDrill
T5C0.0394
; #@! TA.AperFunction,Plated,PTH,ComponentDrill
T6C0.0400
; #@! TA.AperFunction,Plated,PTH,ComponentDrill
T7C0.0512
; #@! TA.AperFunction,Plated,PTH,ComponentDrill
T8C0.1791
%
G90
G05
T1
X5.4Y-5.3
X5.45Y-5.3
X5.5Y-5.3
X5.6Y-4.9
X5.6Y-4.95
X5.6Y-5.0
X5.9323Y-4.7
X5.9823Y-4.7
X6.0323Y-4.7
X6.7Y-4.5
X6.75Y-4.5
X6.8Y-4.5
X7.2Y-4.5
X7.25Y-4.5
X7.3Y-4.5
X7.8Y-4.5
X7.85Y-4.5
X7.9Y-4.5
X8.3Y-4.5
X8.35Y-4.5
X8.4Y-3.5
X8.4Y-4.5
X8.45Y-3.5
X8.5Y-3.5
X8.8Y-2.7368
X8.8Y-4.5
X8.85Y-2.7368
X8.85Y-4.5
X8.9Y-2.7368
X8.9Y-4.5
X9.3Y-4.5
X9.35Y-4.5
X9.4Y-4.5
T2
X3.5Y-5.0
X3.5Y-5.4
X3.9Y-5.0
X3.9Y-5.4
X5.2Y-4.9
X5.2Y-5.3
X5.4Y-4.7
X5.5Y-5.5
X5.7Y-5.3
X5.8Y-4.7
X5.8Y-5.0
X5.9Y-5.5
X6.1Y-5.3
X6.2Y-4.7
X6.2Y-5.0
X6.6Y-4.7
X6.7Y-3.8
X6.7Y-4.2
X6.8Y-4.8
X6.8567Y-2.5746
X6.9Y-4.2
X7.2Y-4.8
X7.2567Y-2.5746
X7.3Y-4.2
X7.6Y-2.9
X7.7Y-3.0
X7.8Y-2.9
X7.8Y-3.8
X7.8Y-4.2
X7.9Y-4.8
X8.0Y-4.2
X8.3Y-2.7
X8.3Y-3.1
X8.3Y-4.8
X8.4Y-4.2
X8.5Y-2.7
X8.5Y-3.1
X8.8Y-2.9506
X8.8Y-3.3506
X8.8Y-3.8
X8.8Y-4.2
X8.9Y-4.8
X9.0Y-4.2
X9.0504Y-3.1506
X9.0504Y-3.2506
X9.0504Y-3.3506
X9.0504Y-3.4506
X9.0504Y-3.5506
X9.0504Y-3.6506
X9.0504Y-3.7506
X9.0504Y-3.8506
X9.3Y-4.8
X9.3504Y-3.1506
X9.3504Y-3.2506
X9.3504Y-3.3506
X9.3504Y-3.4506
X9.3504Y-3.5506
X9.3504Y-3.6506
X9.3504Y-3.7506
X9.3504Y-3.8506
X9.4Y-4.2
T3
X4.1Y-5.0
X4.1Y-5.4
X4.2Y-5.0
X4.2Y-5.4
T4
X2.8Y-2.1228
X2.8Y-2.3
X3.4Y-1.8
X3.5772Y-1.8
X4.1Y-1.8
X4.2772Y-1.8
X4.6Y-1.8
X4.7772Y-1.8
X5.1Y-1.8
X5.2772Y-1.8
T5
X3.4447Y-2.1885
X3.5447Y-2.1885
X4.1408Y-2.1896
X4.2408Y-2.1896
X4.6406Y-2.1919
X4.7406Y-2.1919
X5.1383Y-2.1908
X5.2383Y-2.1908
X6.0Y-2.0
X6.0Y-2.2
X6.1Y-2.0
X6.1Y-2.2
X6.2Y-2.0
X6.2Y-2.2
X6.3Y-2.0
X6.3Y-2.2
X6.4Y-2.0
X6.4Y-2.2
X6.5Y-2.0
X6.5Y-2.2
X6.6Y-2.0
X6.6Y-2.2
X6.7Y-2.0
X6.7Y-2.2
X7.1Y-1.8
X7.2Y-1.8
X7.3Y-1.8
X7.6Y-2.0
X7.6Y-2.2
X7.7Y-2.0
X7.7Y-2.2
X7.8Y-2.0
X7.8Y-2.2
X7.9Y-2.0
X7.9Y-2.2
X8.0Y-2.0
X8.0Y-2.2
X8.1Y-2.0
X8.1Y-2.2
X8.2Y-2.0
X8.2Y-2.2
X8.3Y-2.0
X8.3Y-2.2
X8.4Y-2.0
X8.4Y-2.2
X8.5Y-2.0
X8.5Y-2.2
X8.6Y-2.0
X8.6Y-2.2
X8.7Y-2.0
X8.7Y-2.2
T6
X3.365Y-4.4534
X3.465Y-4.4534
X3.565Y-4.4534
X3.665Y-4.4534
X3.725Y-2.5534
X3.765Y-4.4534
X3.825Y-2.5534
X3.865Y-4.4534
X3.925Y-2.5534
X3.965Y-4.4534
X4.025Y-2.5534
X4.065Y-4.4534
X4.125Y-2.5534
X4.165Y-4.4534
X4.225Y-2.5534
X4.265Y-4.4534
X4.325Y-2.5534
X4.425Y-2.5534
X4.425Y-4.4534
X4.525Y-4.4534
X4.625Y-2.5534
X4.625Y-4.4534
X4.725Y-2.5534
X4.725Y-4.4534
X4.825Y-2.5534
X4.825Y-4.4534
X4.925Y-2.5534
X4.925Y-4.4534
X5.025Y-2.5534
X5.025Y-4.4534
X5.125Y-2.5534
X5.125Y-4.4534
X5.13Y-3.4534
X5.13Y-3.5534
X5.13Y-3.6534
X5.225Y-2.5534
X5.23Y-3.4534
X5.23Y-3.5534
X5.23Y-3.6534
X5.325Y-2.5534
X5.325Y-4.4534
X5.425Y-4.4534
X5.525Y-2.5534
X5.525Y-4.4534
X5.625Y-2.5534
X5.625Y-4.4534
X5.725Y-2.5534
X5.725Y-4.4534
X5.825Y-2.5534
X5.825Y-4.4534
X5.925Y-2.5534
X5.925Y-4.4534
X6.025Y-2.5534
X6.025Y-4.4534
X6.125Y-2.5534
X6.225Y-2.5534
X6.325Y-2.7534
X6.325Y-2.8534
X6.325Y-2.9534
X6.325Y-3.0534
X6.325Y-3.1534
X6.325Y-3.2534
X6.325Y-3.3534
X6.325Y-3.4534
X6.325Y-3.5534
X6.325Y-3.6534
X6.325Y-3.7534
X6.325Y-3.8534
X6.325Y-3.9534
X6.325Y-4.0534
X6.325Y-4.1534
X6.325Y-4.2534
X6.325Y-4.3534
X6.325Y-4.4534
X6.425Y-2.7534
X6.425Y-2.8534
X6.425Y-2.9534
X6.425Y-3.0534
X6.425Y-3.1534
X6.425Y-3.2534
X6.425Y-3.3534
X6.425Y-3.4534
X6.425Y-3.5534
X6.425Y-3.6534
X6.425Y-3.7534
X6.425Y-3.8534
X6.425Y-3.9534
X6.425Y-4.0534
X6.425Y-4.1534
X6.425Y-4.2534
X6.425Y-4.3534
X6.425Y-4.4534
T7
X2.898Y-2.0732
X2.898Y-2.3492
X3.3508Y-1.898
X3.6268Y-1.898
X4.0508Y-1.898
X4.3268Y-1.898
X4.5508Y-1.898
X4.8268Y-1.898
X5.0508Y-1.898
X5.3268Y-1.898
T8
X2.8165Y-5.5
X3.1Y-5.5
T5
G00X2.9Y-4.8229
M15
G01X2.9Y-4.9017
M16
G05
G00X2.9787Y-5.0473
M15
G01X3.0575Y-5.0473
M16
G05
G00X3.1362Y-4.8229
M15
G01X3.1362Y-4.9017
M16
G05
T0
M30
