%TF.GenerationSoftware,KiCad,Pcbnew,(6.0.1)*%
%TF.CreationDate,2022-11-01T11:59:45+11:00*%
%TF.ProjectId,IS250 Interface Board,49533235-3020-4496-9e74-657266616365,rev?*%
%TF.SameCoordinates,Original*%
%TF.FileFunction,Copper,L2,Bot*%
%TF.FilePolarity,Positive*%
%FSLAX46Y46*%
G04 Gerber Fmt 4.6, Leading zero omitted, Abs format (unit mm)*
G04 Created by KiCad (PCBNEW (6.0.1)) date 2022-11-01 11:59:45*
%MOMM*%
%LPD*%
G01*
G04 APERTURE LIST*
G04 Aperture macros list*
%AMRoundRect*
0 Rectangle with rounded corners*
0 $1 Rounding radius*
0 $2 $3 $4 $5 $6 $7 $8 $9 X,Y pos of 4 corners*
0 Add a 4 corners polygon primitive as box body*
4,1,4,$2,$3,$4,$5,$6,$7,$8,$9,$2,$3,0*
0 Add four circle primitives for the rounded corners*
1,1,$1+$1,$2,$3*
1,1,$1+$1,$4,$5*
1,1,$1+$1,$6,$7*
1,1,$1+$1,$8,$9*
0 Add four rect primitives between the rounded corners*
20,1,$1+$1,$2,$3,$4,$5,0*
20,1,$1+$1,$4,$5,$6,$7,0*
20,1,$1+$1,$6,$7,$8,$9,0*
20,1,$1+$1,$8,$9,$2,$3,0*%
G04 Aperture macros list end*
%TA.AperFunction,ComponentPad*%
%ADD10R,1.050000X1.500000*%
%TD*%
%TA.AperFunction,ComponentPad*%
%ADD11O,1.050000X1.500000*%
%TD*%
%TA.AperFunction,ComponentPad*%
%ADD12C,1.600000*%
%TD*%
%TA.AperFunction,ComponentPad*%
%ADD13O,1.600000X1.600000*%
%TD*%
%TA.AperFunction,ComponentPad*%
%ADD14C,1.440000*%
%TD*%
%TA.AperFunction,ComponentPad*%
%ADD15C,6.000000*%
%TD*%
%TA.AperFunction,ComponentPad*%
%ADD16R,6.000000X6.000000*%
%TD*%
%TA.AperFunction,ComponentPad*%
%ADD17R,1.700000X1.700000*%
%TD*%
%TA.AperFunction,ComponentPad*%
%ADD18C,1.700000*%
%TD*%
%TA.AperFunction,ComponentPad*%
%ADD19C,2.100000*%
%TD*%
%TA.AperFunction,ComponentPad*%
%ADD20C,1.750000*%
%TD*%
%TA.AperFunction,ComponentPad*%
%ADD21O,1.700000X1.700000*%
%TD*%
%TA.AperFunction,ComponentPad*%
%ADD22R,1.500000X1.050000*%
%TD*%
%TA.AperFunction,ComponentPad*%
%ADD23O,1.500000X1.050000*%
%TD*%
%TA.AperFunction,ComponentPad*%
%ADD24R,1.800000X1.800000*%
%TD*%
%TA.AperFunction,ComponentPad*%
%ADD25C,1.800000*%
%TD*%
%TA.AperFunction,ComponentPad*%
%ADD26R,3.500000X3.500000*%
%TD*%
%TA.AperFunction,ComponentPad*%
%ADD27RoundRect,0.750000X-0.750000X-1.000000X0.750000X-1.000000X0.750000X1.000000X-0.750000X1.000000X0*%
%TD*%
%TA.AperFunction,ComponentPad*%
%ADD28RoundRect,0.875000X-0.875000X-0.875000X0.875000X-0.875000X0.875000X0.875000X-0.875000X0.875000X0*%
%TD*%
%TA.AperFunction,ComponentPad*%
%ADD29R,1.600000X1.600000*%
%TD*%
%TA.AperFunction,ComponentPad*%
%ADD30O,1.727200X1.727200*%
%TD*%
%TA.AperFunction,Conductor*%
%ADD31C,0.250000*%
%TD*%
G04 APERTURE END LIST*
D10*
%TO.P,Q3,1,E*%
%TO.N,/MPX Transciever/MPX+*%
X137160000Y-134620000D03*
D11*
%TO.P,Q3,2,B*%
%TO.N,Net-(Q3-Pad2)*%
X138430000Y-134620000D03*
%TO.P,Q3,3,C*%
%TO.N,+12V*%
X139700000Y-134620000D03*
%TD*%
D12*
%TO.P,R3,1*%
%TO.N,GND*%
X132080000Y-124460000D03*
D13*
%TO.P,R3,2*%
%TO.N,/MPX Transciever/MPX+*%
X132080000Y-134620000D03*
%TD*%
D10*
%TO.P,Q9,1,E*%
%TO.N,+12V*%
X182880000Y-114300000D03*
D11*
%TO.P,Q9,2,B*%
%TO.N,Net-(Q9-Pad2)*%
X184150000Y-114300000D03*
%TO.P,Q9,3,C*%
%TO.N,/LFT-TRN*%
X185420000Y-114300000D03*
%TD*%
D14*
%TO.P,RV1,1,1*%
%TO.N,/Illumination Circuit/ILL+*%
X193040000Y-73660000D03*
%TO.P,RV1,2,2*%
%TO.N,/Illumination Circuit/ILL-S*%
X195580000Y-76200000D03*
%TO.P,RV1,3,3*%
%TO.N,/Illumination Circuit/ILL-GND*%
X198120000Y-73660000D03*
%TD*%
D12*
%TO.P,R16,1*%
%TO.N,/RHT-T*%
X198120000Y-96520000D03*
D13*
%TO.P,R16,2*%
%TO.N,Net-(Q10-Pad2)*%
X198120000Y-106680000D03*
%TD*%
D12*
%TO.P,R1,1*%
%TO.N,/Tacho*%
X223520000Y-96520000D03*
D13*
%TO.P,R1,2*%
%TO.N,Net-(Q1-Pad2)*%
X223520000Y-106680000D03*
%TD*%
D12*
%TO.P,R6,1*%
%TO.N,Net-(Q4-Pad2)*%
X147320000Y-127000000D03*
D13*
%TO.P,R6,2*%
%TO.N,Net-(Q5-Pad3)*%
X157480000Y-127000000D03*
%TD*%
D15*
%TO.P,J4,N,NEG*%
%TO.N,GND*%
X71540000Y-139700000D03*
D16*
%TO.P,J4,P,POS*%
%TO.N,+12V*%
X78740000Y-139700000D03*
%TD*%
D12*
%TO.P,R8,1*%
%TO.N,Net-(Q5-Pad2)*%
X147320000Y-119380000D03*
D13*
%TO.P,R8,2*%
%TO.N,/MPX-S*%
X137160000Y-119380000D03*
%TD*%
D17*
%TO.P,J2,1,NC*%
%TO.N,unconnected-(J2-Pad1)*%
X170180000Y-50800000D03*
D18*
%TO.P,J2,2,NC*%
%TO.N,unconnected-(J2-Pad2)*%
X167640000Y-50800000D03*
%TO.P,J2,3,PBLT-W*%
%TO.N,unconnected-(J2-Pad3)*%
X165100000Y-50800000D03*
%TO.P,J2,4,PBLT-SW*%
%TO.N,unconnected-(J2-Pad4)*%
X162560000Y-50800000D03*
%TO.P,J2,5,RSEL*%
%TO.N,/Satellite Switch/RSEL*%
X160020000Y-50800000D03*
%TO.P,J2,6,LSEL*%
%TO.N,/Satellite Switch/LSEL*%
X157480000Y-50800000D03*
%TO.P,J2,7,SET*%
%TO.N,/Satellite Switch/SET*%
X154940000Y-50800000D03*
%TO.P,J2,8,NC*%
%TO.N,unconnected-(J2-Pad8)*%
X152400000Y-50800000D03*
%TO.P,J2,9,ILL-*%
%TO.N,unconnected-(J2-Pad9)*%
X170180000Y-55880000D03*
%TO.P,J2,10,RHT-TRN*%
%TO.N,/RHT-TRN*%
X167640000Y-55880000D03*
%TO.P,J2,11,CHK-ENG*%
%TO.N,unconnected-(J2-Pad11)*%
X165100000Y-55880000D03*
%TO.P,J2,12,NC*%
%TO.N,unconnected-(J2-Pad12)*%
X162560000Y-55880000D03*
%TO.P,J2,13,NC*%
%TO.N,unconnected-(J2-Pad13)*%
X160020000Y-55880000D03*
%TO.P,J2,14,NC*%
%TO.N,unconnected-(J2-Pad14)*%
X157480000Y-55880000D03*
%TO.P,J2,15,BRK-FLU*%
%TO.N,+12V*%
X154940000Y-55880000D03*
%TO.P,J2,16,NC*%
%TO.N,unconnected-(J2-Pad16)*%
X152400000Y-55880000D03*
%TD*%
D10*
%TO.P,Q11,1,E*%
%TO.N,+12V*%
X210820000Y-114300000D03*
D11*
%TO.P,Q11,2,B*%
%TO.N,Net-(Q11-Pad2)*%
X212090000Y-114300000D03*
%TO.P,Q11,3,C*%
%TO.N,/RHT-TRN*%
X213360000Y-114300000D03*
%TD*%
D19*
%TO.P,SW2,*%
%TO.N,*%
X92120000Y-48210000D03*
X85110000Y-48210000D03*
D20*
%TO.P,SW2,1,A*%
%TO.N,Net-(J1-Pad20)*%
X86360000Y-45720000D03*
%TO.P,SW2,2,B*%
%TO.N,GND*%
X90860000Y-45720000D03*
%TD*%
D12*
%TO.P,R14,1*%
%TO.N,Net-(Q8-Pad3)*%
X175260000Y-106680000D03*
D13*
%TO.P,R14,2*%
%TO.N,Net-(Q9-Pad2)*%
X185420000Y-106680000D03*
%TD*%
D17*
%TO.P,J8,1,Pin_1*%
%TO.N,GND*%
X130512000Y-55646600D03*
D21*
%TO.P,J8,2,Pin_2*%
%TO.N,/Satellite Switch/LSEL*%
X133052000Y-55646600D03*
%TD*%
D17*
%TO.P,J5,1,Pin_1*%
%TO.N,Net-(J1-Pad20)*%
X87494500Y-55588900D03*
D21*
%TO.P,J5,2,Pin_2*%
%TO.N,GND*%
X90034500Y-55588900D03*
%TD*%
D10*
%TO.P,Q5,1,E*%
%TO.N,GND*%
X150680000Y-119380000D03*
D11*
%TO.P,Q5,2,B*%
%TO.N,Net-(Q5-Pad2)*%
X151950000Y-119380000D03*
%TO.P,Q5,3,C*%
%TO.N,Net-(Q5-Pad3)*%
X153220000Y-119380000D03*
%TD*%
D22*
%TO.P,Q4,1,E*%
%TO.N,GND*%
X142240000Y-124460000D03*
D23*
%TO.P,Q4,2,B*%
%TO.N,Net-(Q4-Pad2)*%
X142240000Y-125730000D03*
%TO.P,Q4,3,C*%
%TO.N,Net-(Q4-Pad3)*%
X142240000Y-127000000D03*
%TD*%
D10*
%TO.P,Q10,1,E*%
%TO.N,GND*%
X198120000Y-114300000D03*
D11*
%TO.P,Q10,2,B*%
%TO.N,Net-(Q10-Pad2)*%
X199390000Y-114300000D03*
%TO.P,Q10,3,C*%
%TO.N,Net-(Q10-Pad3)*%
X200660000Y-114300000D03*
%TD*%
D12*
%TO.P,R18,1*%
%TO.N,+12V*%
X210820000Y-121920000D03*
D13*
%TO.P,R18,2*%
%TO.N,Net-(Q10-Pad3)*%
X200660000Y-121920000D03*
%TD*%
D12*
%TO.P,R9,1*%
%TO.N,/MPX Transciever/MPX-*%
X215900000Y-68580000D03*
D13*
%TO.P,R9,2*%
%TO.N,Net-(Q6-Pad2)*%
X215900000Y-78740000D03*
%TD*%
D12*
%TO.P,R7,1*%
%TO.N,+5V*%
X167640000Y-119380000D03*
D13*
%TO.P,R7,2*%
%TO.N,Net-(Q5-Pad3)*%
X157480000Y-119380000D03*
%TD*%
%TO.P,R19,2*%
%TO.N,/Fuel System/FUEL*%
X174160000Y-65395000D03*
D12*
%TO.P,R19,1*%
%TO.N,/Fuel System/FUEL-GND*%
X184320000Y-65395000D03*
%TD*%
D19*
%TO.P,SW6,*%
%TO.N,*%
X73610000Y-52660000D03*
X73610000Y-59670000D03*
D20*
%TO.P,SW6,1,A*%
%TO.N,Net-(SW6-Pad1)*%
X71120000Y-58420000D03*
%TO.P,SW6,2,B*%
%TO.N,GND*%
X71120000Y-53920000D03*
%TD*%
D12*
%TO.P,R11,1*%
%TO.N,+12V*%
X236220000Y-121920000D03*
D13*
%TO.P,R11,2*%
%TO.N,Net-(Q1-Pad3)*%
X226060000Y-121920000D03*
%TD*%
D12*
%TO.P,R15,1*%
%TO.N,+12V*%
X182880000Y-121920000D03*
D13*
%TO.P,R15,2*%
%TO.N,Net-(Q8-Pad3)*%
X172720000Y-121920000D03*
%TD*%
D19*
%TO.P,SW5,*%
%TO.N,*%
X135300000Y-48210000D03*
X128290000Y-48210000D03*
D20*
%TO.P,SW5,1,A*%
%TO.N,GND*%
X129540000Y-45720000D03*
%TO.P,SW5,2,B*%
%TO.N,/Satellite Switch/LSEL*%
X134040000Y-45720000D03*
%TD*%
D12*
%TO.P,R2,1*%
%TO.N,Net-(Q1-Pad3)*%
X228600000Y-106680000D03*
D13*
%TO.P,R2,2*%
%TO.N,Net-(Q2-Pad2)*%
X238760000Y-106680000D03*
%TD*%
D12*
%TO.P,R20,1*%
%TO.N,+12V*%
X88900000Y-127000000D03*
D13*
%TO.P,R20,2*%
%TO.N,Net-(D1-Pad2)*%
X99060000Y-127000000D03*
%TD*%
D24*
%TO.P,D2,1,K*%
%TO.N,GND*%
X106680000Y-137160000D03*
D25*
%TO.P,D2,2,A*%
%TO.N,Net-(D2-Pad2)*%
X104140000Y-137160000D03*
%TD*%
D18*
%TO.P,SW1,1,A*%
%TO.N,Net-(J1-Pad12)*%
X180340000Y-45720000D03*
%TO.P,SW1,2,B*%
%TO.N,+12V*%
X182880000Y-45720000D03*
%TO.P,SW1,3*%
%TO.N,N/C*%
X185420000Y-45720000D03*
%TD*%
D26*
%TO.P,J3,1*%
%TO.N,+12V*%
X79660000Y-123502500D03*
D27*
%TO.P,J3,2*%
%TO.N,GND*%
X73660000Y-123502500D03*
D28*
%TO.P,J3,3*%
%TO.N,N/C*%
X76660000Y-128202500D03*
%TD*%
D12*
%TO.P,R4,1*%
%TO.N,Net-(Q3-Pad2)*%
X139700000Y-139700000D03*
D13*
%TO.P,R4,2*%
%TO.N,Net-(Q4-Pad3)*%
X149860000Y-139700000D03*
%TD*%
D24*
%TO.P,D1,1,K*%
%TO.N,GND*%
X106680000Y-127000000D03*
D25*
%TO.P,D1,2,A*%
%TO.N,Net-(D1-Pad2)*%
X104140000Y-127000000D03*
%TD*%
D12*
%TO.P,R12,1*%
%TO.N,Net-(R12-Pad1)*%
X223520000Y-85105000D03*
D13*
%TO.P,R12,2*%
%TO.N,Net-(Q7-Pad2)*%
X223520000Y-74945000D03*
%TD*%
D29*
%TO.P,U2,1,Q5*%
%TO.N,unconnected-(U2-Pad1)*%
X229880000Y-80025000D03*
D13*
%TO.P,U2,2,Q1*%
%TO.N,unconnected-(U2-Pad2)*%
X229880000Y-82565000D03*
%TO.P,U2,3,Q0*%
%TO.N,Net-(R12-Pad1)*%
X229880000Y-85105000D03*
%TO.P,U2,4,Q2*%
%TO.N,unconnected-(U2-Pad4)*%
X229880000Y-87645000D03*
%TO.P,U2,5,Q6*%
%TO.N,unconnected-(U2-Pad5)*%
X229880000Y-90185000D03*
%TO.P,U2,6,Q7*%
%TO.N,unconnected-(U2-Pad6)*%
X229880000Y-92725000D03*
%TO.P,U2,7,Q3*%
%TO.N,unconnected-(U2-Pad7)*%
X229880000Y-95265000D03*
%TO.P,U2,8,VSS*%
%TO.N,GND*%
X229880000Y-97805000D03*
%TO.P,U2,9,Q8*%
%TO.N,unconnected-(U2-Pad9)*%
X237500000Y-97805000D03*
%TO.P,U2,10,Q4*%
%TO.N,unconnected-(U2-Pad10)*%
X237500000Y-95265000D03*
%TO.P,U2,11,Q9*%
%TO.N,unconnected-(U2-Pad11)*%
X237500000Y-92725000D03*
%TO.P,U2,12,Cout*%
%TO.N,unconnected-(U2-Pad12)*%
X237500000Y-90185000D03*
%TO.P,U2,13,CKEN*%
%TO.N,GND*%
X237500000Y-87645000D03*
%TO.P,U2,14,CLK*%
%TO.N,/Speedo*%
X237500000Y-85105000D03*
%TO.P,U2,15,Reset*%
%TO.N,GND*%
X237500000Y-82565000D03*
%TO.P,U2,16,VDD*%
%TO.N,+5V*%
X237500000Y-80025000D03*
%TD*%
D19*
%TO.P,SW4,*%
%TO.N,*%
X115590000Y-48210000D03*
X122600000Y-48210000D03*
D20*
%TO.P,SW4,1,A*%
%TO.N,GND*%
X116840000Y-45720000D03*
%TO.P,SW4,2,B*%
%TO.N,/Satellite Switch/SET*%
X121340000Y-45720000D03*
%TD*%
D17*
%TO.P,J6,1,Pin_1*%
%TO.N,GND*%
X105175100Y-55616000D03*
D21*
%TO.P,J6,2,Pin_2*%
%TO.N,/Satellite Switch/RSEL*%
X107715100Y-55616000D03*
%TD*%
D12*
%TO.P,R13,1*%
%TO.N,/LFT-T*%
X170180000Y-96520000D03*
D13*
%TO.P,R13,2*%
%TO.N,Net-(Q8-Pad2)*%
X170180000Y-106680000D03*
%TD*%
D10*
%TO.P,Q7,1,E*%
%TO.N,GND*%
X223520000Y-69515000D03*
D11*
%TO.P,Q7,2,B*%
%TO.N,Net-(Q7-Pad2)*%
X224790000Y-69515000D03*
%TO.P,Q7,3,C*%
%TO.N,/Speedo Conversion/SPD IN*%
X226060000Y-69515000D03*
%TD*%
D12*
%TO.P,R17,1*%
%TO.N,Net-(Q10-Pad3)*%
X203200000Y-106680000D03*
D13*
%TO.P,R17,2*%
%TO.N,Net-(Q11-Pad2)*%
X213360000Y-106680000D03*
%TD*%
D17*
%TO.P,J7,1,Pin_1*%
%TO.N,GND*%
X117870800Y-55675000D03*
D21*
%TO.P,J7,2,Pin_2*%
%TO.N,/Satellite Switch/SET*%
X120410800Y-55675000D03*
%TD*%
D10*
%TO.P,Q6,1,E*%
%TO.N,/MPX-R*%
X213360000Y-88900000D03*
D11*
%TO.P,Q6,2,B*%
%TO.N,Net-(Q6-Pad2)*%
X214630000Y-88900000D03*
%TO.P,Q6,3,C*%
%TO.N,+5V*%
X215900000Y-88900000D03*
%TD*%
D10*
%TO.P,Q1,1,E*%
%TO.N,GND*%
X223520000Y-114300000D03*
D11*
%TO.P,Q1,2,B*%
%TO.N,Net-(Q1-Pad2)*%
X224790000Y-114300000D03*
%TO.P,Q1,3,C*%
%TO.N,Net-(Q1-Pad3)*%
X226060000Y-114300000D03*
%TD*%
D12*
%TO.P,R10,1*%
%TO.N,GND*%
X210820000Y-68580000D03*
D13*
%TO.P,R10,2*%
%TO.N,/MPX-R*%
X210820000Y-78740000D03*
%TD*%
D19*
%TO.P,SW3,*%
%TO.N,*%
X102890000Y-48210000D03*
X109900000Y-48210000D03*
D20*
%TO.P,SW3,1,A*%
%TO.N,GND*%
X104140000Y-45720000D03*
%TO.P,SW3,2,B*%
%TO.N,/Satellite Switch/RSEL*%
X108640000Y-45720000D03*
%TD*%
D10*
%TO.P,Q8,1,E*%
%TO.N,GND*%
X170180000Y-114300000D03*
D11*
%TO.P,Q8,2,B*%
%TO.N,Net-(Q8-Pad2)*%
X171450000Y-114300000D03*
%TO.P,Q8,3,C*%
%TO.N,Net-(Q8-Pad3)*%
X172720000Y-114300000D03*
%TD*%
D10*
%TO.P,Q2,1,E*%
%TO.N,+12V*%
X236220000Y-114300000D03*
D11*
%TO.P,Q2,2,B*%
%TO.N,Net-(Q2-Pad2)*%
X237490000Y-114300000D03*
%TO.P,Q2,3,C*%
%TO.N,/Tacho Conversion/12V Out*%
X238760000Y-114300000D03*
%TD*%
D17*
%TO.P,J1,1,GND*%
%TO.N,GND*%
X220980000Y-50800000D03*
D18*
%TO.P,J1,2,GND-F*%
%TO.N,/Fuel System/FUEL-GND*%
X218440000Y-50800000D03*
%TO.P,J1,3,NC*%
%TO.N,unconnected-(J1-Pad3)*%
X215900000Y-50800000D03*
%TO.P,J1,4,NC*%
%TO.N,unconnected-(J1-Pad4)*%
X213360000Y-50800000D03*
%TO.P,J1,5,SPD-OUT*%
%TO.N,unconnected-(J1-Pad5)*%
X210820000Y-50800000D03*
%TO.P,J1,6,MPX+*%
%TO.N,/MPX Transciever/MPX+*%
X208280000Y-50800000D03*
%TO.P,J1,7,NC*%
%TO.N,unconnected-(J1-Pad7)*%
X205740000Y-50800000D03*
%TO.P,J1,8,ILL-OVRD*%
%TO.N,unconnected-(J1-Pad8)*%
X203200000Y-50800000D03*
%TO.P,J1,9,ILL+*%
%TO.N,/Illumination Circuit/ILL+*%
X200660000Y-50800000D03*
%TO.P,J1,10,NC*%
%TO.N,unconnected-(J1-Pad10)*%
X198120000Y-50800000D03*
%TO.P,J1,11,LFT-TRN*%
%TO.N,/LFT-TRN*%
X195580000Y-50800000D03*
%TO.P,J1,12,IGN-SW*%
%TO.N,Net-(J1-Pad12)*%
X193040000Y-50800000D03*
%TO.P,J1,13,GND-S*%
%TO.N,GND*%
X220980000Y-55880000D03*
%TO.P,J1,14,GND-ILL*%
%TO.N,/Illumination Circuit/ILL-GND*%
X218440000Y-55880000D03*
%TO.P,J1,15,NC*%
%TO.N,unconnected-(J1-Pad15)*%
X215900000Y-55880000D03*
%TO.P,J1,16,TACH*%
%TO.N,/Tacho Conversion/12V Out*%
X213360000Y-55880000D03*
%TO.P,J1,17,SPD-IN*%
%TO.N,/Speedo Conversion/SPD IN*%
X210820000Y-55880000D03*
%TO.P,J1,18,MPX-*%
%TO.N,/MPX Transciever/MPX-*%
X208280000Y-55880000D03*
%TO.P,J1,19,FUEL*%
%TO.N,/Fuel System/FUEL*%
X205740000Y-55880000D03*
%TO.P,J1,20,DISP-SW*%
%TO.N,Net-(J1-Pad20)*%
X203200000Y-55880000D03*
%TO.P,J1,21,ILL-S*%
%TO.N,/Illumination Circuit/ILL-S*%
X200660000Y-55880000D03*
%TO.P,J1,22,NC*%
%TO.N,unconnected-(J1-Pad22)*%
X198120000Y-55880000D03*
%TO.P,J1,23,12V*%
%TO.N,+12V*%
X195580000Y-55880000D03*
%TO.P,J1,24,12V*%
X193040000Y-55880000D03*
%TD*%
D12*
%TO.P,R5,1*%
%TO.N,+12V*%
X144780000Y-134620000D03*
D13*
%TO.P,R5,2*%
%TO.N,Net-(Q4-Pad3)*%
X154940000Y-134620000D03*
%TD*%
D12*
%TO.P,R21,1*%
%TO.N,+5V*%
X88900000Y-137160000D03*
D13*
%TO.P,R21,2*%
%TO.N,Net-(D2-Pad2)*%
X99060000Y-137160000D03*
%TD*%
D30*
%TO.P,XA1,*%
%TO.N,*%
X94615000Y-64857500D03*
%TO.P,XA1,3V3,3.3V*%
%TO.N,unconnected-(XA1-Pad3V3)*%
X102235000Y-64857500D03*
%TO.P,XA1,5V1,5V*%
%TO.N,+5V*%
X104775000Y-64857500D03*
%TO.P,XA1,5V2,SPI_5V*%
%TO.N,unconnected-(XA1-Pad5V2)*%
X132842000Y-92797500D03*
%TO.P,XA1,5V3,5V*%
%TO.N,unconnected-(XA1-Pad5V3)*%
X160655000Y-113117500D03*
%TO.P,XA1,5V4,5V*%
%TO.N,unconnected-(XA1-Pad5V4)*%
X163195000Y-113117500D03*
%TO.P,XA1,A0,A0*%
%TO.N,unconnected-(XA1-PadA0)*%
X117475000Y-64857500D03*
%TO.P,XA1,A1,A1*%
%TO.N,unconnected-(XA1-PadA1)*%
X120015000Y-64857500D03*
%TO.P,XA1,A2,A2*%
%TO.N,unconnected-(XA1-PadA2)*%
X122555000Y-64857500D03*
%TO.P,XA1,A3,A3*%
%TO.N,unconnected-(XA1-PadA3)*%
X125095000Y-64857500D03*
%TO.P,XA1,A4,A4*%
%TO.N,unconnected-(XA1-PadA4)*%
X127635000Y-64857500D03*
%TO.P,XA1,A5,A5*%
%TO.N,unconnected-(XA1-PadA5)*%
X130175000Y-64857500D03*
%TO.P,XA1,A6,A6*%
%TO.N,unconnected-(XA1-PadA6)*%
X132715000Y-64857500D03*
%TO.P,XA1,A7,A7*%
%TO.N,unconnected-(XA1-PadA7)*%
X135255000Y-64857500D03*
%TO.P,XA1,A8,A8*%
%TO.N,unconnected-(XA1-PadA8)*%
X140335000Y-64857500D03*
%TO.P,XA1,A9,A9*%
%TO.N,unconnected-(XA1-PadA9)*%
X142875000Y-64857500D03*
%TO.P,XA1,A10,A10*%
%TO.N,unconnected-(XA1-PadA10)*%
X145415000Y-64857500D03*
%TO.P,XA1,A11,A11*%
%TO.N,unconnected-(XA1-PadA11)*%
X147955000Y-64857500D03*
%TO.P,XA1,A12,A12*%
%TO.N,unconnected-(XA1-PadA12)*%
X150495000Y-64857500D03*
%TO.P,XA1,A13,A13*%
%TO.N,unconnected-(XA1-PadA13)*%
X153035000Y-64857500D03*
%TO.P,XA1,A14,A14*%
%TO.N,unconnected-(XA1-PadA14)*%
X155575000Y-64857500D03*
%TO.P,XA1,A15,A15*%
%TO.N,unconnected-(XA1-PadA15)*%
X158115000Y-64857500D03*
%TO.P,XA1,AREF,AREF*%
%TO.N,unconnected-(XA1-PadAREF)*%
X90551000Y-113117500D03*
%TO.P,XA1,D0,D0_RX0*%
%TO.N,unconnected-(XA1-PadD0)*%
X130175000Y-113117500D03*
%TO.P,XA1,D1,D1_TX0*%
%TO.N,unconnected-(XA1-PadD1)*%
X127635000Y-113117500D03*
%TO.P,XA1,D2,D2_INT0*%
%TO.N,unconnected-(XA1-PadD2)*%
X125095000Y-113117500D03*
%TO.P,XA1,D3,D3_INT1*%
%TO.N,unconnected-(XA1-PadD3)*%
X122555000Y-113117500D03*
%TO.P,XA1,D4,D4*%
%TO.N,unconnected-(XA1-PadD4)*%
X120015000Y-113117500D03*
%TO.P,XA1,D5,D5*%
%TO.N,unconnected-(XA1-PadD5)*%
X117475000Y-113117500D03*
%TO.P,XA1,D6,D6*%
%TO.N,unconnected-(XA1-PadD6)*%
X114935000Y-113117500D03*
%TO.P,XA1,D7,D7*%
%TO.N,unconnected-(XA1-PadD7)*%
X112395000Y-113117500D03*
%TO.P,XA1,D8,D8*%
%TO.N,unconnected-(XA1-PadD8)*%
X108331000Y-113117500D03*
%TO.P,XA1,D9,D9*%
%TO.N,unconnected-(XA1-PadD9)*%
X105791000Y-113117500D03*
%TO.P,XA1,D10,D10*%
%TO.N,unconnected-(XA1-PadD10)*%
X103251000Y-113117500D03*
%TO.P,XA1,D11,D11*%
%TO.N,unconnected-(XA1-PadD11)*%
X100711000Y-113117500D03*
%TO.P,XA1,D12,D12*%
%TO.N,unconnected-(XA1-PadD12)*%
X98171000Y-113117500D03*
%TO.P,XA1,D13,D13*%
%TO.N,unconnected-(XA1-PadD13)*%
X95631000Y-113117500D03*
%TO.P,XA1,D14,D14_TX3*%
%TO.N,unconnected-(XA1-PadD14)*%
X135255000Y-113117500D03*
%TO.P,XA1,D15,D15_RX3*%
%TO.N,unconnected-(XA1-PadD15)*%
X137795000Y-113117500D03*
%TO.P,XA1,D16,D16_TX2*%
%TO.N,unconnected-(XA1-PadD16)*%
X140335000Y-113117500D03*
%TO.P,XA1,D17,D17_RX2*%
%TO.N,unconnected-(XA1-PadD17)*%
X142875000Y-113117500D03*
%TO.P,XA1,D18,D18_TX1*%
%TO.N,unconnected-(XA1-PadD18)*%
X145415000Y-113117500D03*
%TO.P,XA1,D19,D19_RX1*%
%TO.N,unconnected-(XA1-PadD19)*%
X147955000Y-113117500D03*
%TO.P,XA1,D20,D20_SDA*%
%TO.N,unconnected-(XA1-PadD20)*%
X150495000Y-113117500D03*
%TO.P,XA1,D21,D21_SCL*%
%TO.N,unconnected-(XA1-PadD21)*%
X153035000Y-113117500D03*
%TO.P,XA1,D22,D22*%
%TO.N,unconnected-(XA1-PadD22)*%
X160655000Y-110577500D03*
%TO.P,XA1,D23,D23*%
%TO.N,unconnected-(XA1-PadD23)*%
X163195000Y-110577500D03*
%TO.P,XA1,D24,D24*%
%TO.N,unconnected-(XA1-PadD24)*%
X160655000Y-108037500D03*
%TO.P,XA1,D25,D25*%
%TO.N,unconnected-(XA1-PadD25)*%
X163195000Y-108037500D03*
%TO.P,XA1,D26,D26*%
%TO.N,unconnected-(XA1-PadD26)*%
X160655000Y-105497500D03*
%TO.P,XA1,D27,D27*%
%TO.N,unconnected-(XA1-PadD27)*%
X163195000Y-105497500D03*
%TO.P,XA1,D28,D28*%
%TO.N,unconnected-(XA1-PadD28)*%
X160655000Y-102957500D03*
%TO.P,XA1,D29,D29*%
%TO.N,unconnected-(XA1-PadD29)*%
X163195000Y-102957500D03*
%TO.P,XA1,D30,D30*%
%TO.N,unconnected-(XA1-PadD30)*%
X160655000Y-100417500D03*
%TO.P,XA1,D31,D31*%
%TO.N,unconnected-(XA1-PadD31)*%
X163195000Y-100417500D03*
%TO.P,XA1,D32,D32*%
%TO.N,unconnected-(XA1-PadD32)*%
X160655000Y-97877500D03*
%TO.P,XA1,D33,D33*%
%TO.N,unconnected-(XA1-PadD33)*%
X163195000Y-97877500D03*
%TO.P,XA1,D34,D34*%
%TO.N,unconnected-(XA1-PadD34)*%
X160655000Y-95337500D03*
%TO.P,XA1,D35,D35*%
%TO.N,unconnected-(XA1-PadD35)*%
X163195000Y-95337500D03*
%TO.P,XA1,D36,D36*%
%TO.N,unconnected-(XA1-PadD36)*%
X160655000Y-92797500D03*
%TO.P,XA1,D37,D37*%
%TO.N,unconnected-(XA1-PadD37)*%
X163195000Y-92797500D03*
%TO.P,XA1,D38,D38*%
%TO.N,/LFT-T*%
X160655000Y-90257500D03*
%TO.P,XA1,D39,D39*%
%TO.N,/RHT-T*%
X163195000Y-90257500D03*
%TO.P,XA1,D40,D40*%
%TO.N,unconnected-(XA1-PadD40)*%
X160655000Y-87717500D03*
%TO.P,XA1,D41,D41*%
%TO.N,unconnected-(XA1-PadD41)*%
X163195000Y-87717500D03*
%TO.P,XA1,D42,D42*%
%TO.N,/Tacho*%
X160655000Y-85177500D03*
%TO.P,XA1,D43,D43*%
%TO.N,/Speedo*%
X163195000Y-85177500D03*
%TO.P,XA1,D44,D44*%
%TO.N,unconnected-(XA1-PadD44)*%
X160655000Y-82637500D03*
%TO.P,XA1,D45,D45*%
%TO.N,unconnected-(XA1-PadD45)*%
X163195000Y-82637500D03*
%TO.P,XA1,D46,D46*%
%TO.N,/MPX-R*%
X160655000Y-80097500D03*
%TO.P,XA1,D47,D47*%
%TO.N,/MPX-S*%
X163195000Y-80097500D03*
%TO.P,XA1,D48,D48*%
%TO.N,unconnected-(XA1-PadD48)*%
X160655000Y-77557500D03*
%TO.P,XA1,D49,D49*%
%TO.N,unconnected-(XA1-PadD49)*%
X163195000Y-77557500D03*
%TO.P,XA1,D50,D50*%
%TO.N,unconnected-(XA1-PadD50)*%
X160655000Y-75017500D03*
%TO.P,XA1,D51,D51*%
%TO.N,/MOSI*%
X163195000Y-75017500D03*
%TO.P,XA1,D52,D52*%
%TO.N,/CLK*%
X160655000Y-72477500D03*
%TO.P,XA1,D53,D53_SS*%
%TO.N,/CS*%
X163195000Y-72477500D03*
%TO.P,XA1,GND1,GND*%
%TO.N,GND*%
X93091000Y-113117500D03*
%TO.P,XA1,GND2,GND*%
%TO.N,unconnected-(XA1-PadGND2)*%
X107315000Y-64857500D03*
%TO.P,XA1,GND3,GND*%
%TO.N,unconnected-(XA1-PadGND3)*%
X109855000Y-64857500D03*
%TO.P,XA1,GND4,SPI_GND*%
%TO.N,unconnected-(XA1-PadGND4)*%
X132842000Y-87717500D03*
%TO.P,XA1,GND5,GND*%
%TO.N,unconnected-(XA1-PadGND5)*%
X160655000Y-69937500D03*
%TO.P,XA1,GND6,GND*%
%TO.N,GND*%
X163195000Y-69937500D03*
%TO.P,XA1,IORF,IOREF*%
%TO.N,unconnected-(XA1-PadIORF)*%
X97155000Y-64857500D03*
%TO.P,XA1,MISO,SPI_MISO*%
%TO.N,unconnected-(XA1-PadMISO)*%
X130302000Y-92797500D03*
%TO.P,XA1,MOSI,SPI_MOSI*%
%TO.N,unconnected-(XA1-PadMOSI)*%
X132842000Y-90257500D03*
%TO.P,XA1,RST1,RESET*%
%TO.N,Net-(SW6-Pad1)*%
X99695000Y-64857500D03*
%TO.P,XA1,RST2,SPI_RESET*%
%TO.N,unconnected-(XA1-PadRST2)*%
X130302000Y-87717500D03*
%TO.P,XA1,SCK,SPI_SCK*%
%TO.N,unconnected-(XA1-PadSCK)*%
X130302000Y-90257500D03*
%TO.P,XA1,SCL,SCL*%
%TO.N,unconnected-(XA1-PadSCL)*%
X85471000Y-113117500D03*
%TO.P,XA1,SDA,SDA*%
%TO.N,unconnected-(XA1-PadSDA)*%
X88011000Y-113117500D03*
%TO.P,XA1,VIN,VIN*%
%TO.N,unconnected-(XA1-PadVIN)*%
X112395000Y-64857500D03*
%TD*%
D31*
%TO.N,GND*%
X237500000Y-82565000D02*
X237500000Y-83690100D01*
X168479800Y-115150100D02*
X153834800Y-115150100D01*
X150680000Y-119380000D02*
X150680000Y-118304900D01*
X237733100Y-83690100D02*
X237500000Y-83690100D01*
X169329900Y-114300000D02*
X168479800Y-115150100D01*
X131687100Y-56013900D02*
X132494900Y-56821700D01*
X73660000Y-123502500D02*
X73660000Y-137580000D01*
X130512000Y-55646600D02*
X131687100Y-55646600D01*
X153834800Y-115150100D02*
X150680000Y-118304900D01*
X156711250Y-61728750D02*
X154946750Y-61728750D01*
X163195000Y-69937500D02*
X163195000Y-71126200D01*
X93091000Y-113117500D02*
X93091000Y-114306200D01*
X237500000Y-87645000D02*
X237500000Y-86519900D01*
X160315800Y-65869600D02*
X163195000Y-68748800D01*
X93091000Y-114306200D02*
X93202900Y-114306200D01*
X220980000Y-55880000D02*
X220980000Y-50800000D01*
X163195000Y-69937500D02*
X163195000Y-68748800D01*
X105454900Y-126558200D02*
X105454900Y-127000000D01*
X163195000Y-71126200D02*
X163566500Y-71126200D01*
X129540000Y-45720000D02*
X130512000Y-46692000D01*
X160315800Y-65333300D02*
X160315800Y-65869600D01*
X156711250Y-61728750D02*
X160315800Y-65333300D01*
X237698400Y-86519900D02*
X238660800Y-85557500D01*
X238660800Y-84617800D02*
X237733100Y-83690100D01*
X117870800Y-46750800D02*
X117870800Y-55675000D01*
X106680000Y-127000000D02*
X106680000Y-137160000D01*
X237500000Y-86519900D02*
X237698400Y-86519900D01*
X238660800Y-85557500D02*
X238660800Y-84617800D01*
X154946750Y-61728750D02*
X150039700Y-56821700D01*
X171308600Y-109955200D02*
X170180000Y-111083800D01*
X73660000Y-137580000D02*
X71540000Y-139700000D01*
X170180000Y-111083800D02*
X170180000Y-114300000D01*
X132494900Y-56821700D02*
X150039700Y-56821700D01*
X163566500Y-71126200D02*
X171308600Y-78868300D01*
X130512000Y-46692000D02*
X130512000Y-55646600D01*
X106680000Y-127000000D02*
X105454900Y-127000000D01*
X116840000Y-45720000D02*
X117870800Y-46750800D01*
X170180000Y-114300000D02*
X169329900Y-114300000D01*
X131687100Y-55646600D02*
X131687100Y-56013900D01*
X93202900Y-114306200D02*
X105454900Y-126558200D01*
X171308600Y-78868300D02*
X171308600Y-109955200D01*
%TO.N,/MPX Transciever/MPX+*%
X185551000Y-120875900D02*
X165598500Y-140828400D01*
X141789900Y-133544900D02*
X137160000Y-133544900D01*
X206454900Y-95888700D02*
X185551000Y-116792600D01*
X165598500Y-140828400D02*
X149073400Y-140828400D01*
X208280000Y-50800000D02*
X207010000Y-52070000D01*
X137160000Y-134620000D02*
X137160000Y-133544900D01*
X207010000Y-95333600D02*
X206454900Y-95888700D01*
X149073400Y-140828400D02*
X141789900Y-133544900D01*
X185551000Y-116792600D02*
X185551000Y-120875900D01*
X207010000Y-52070000D02*
X207010000Y-95333600D01*
%TO.N,/Illumination Circuit/ILL+*%
X200660000Y-50800000D02*
X199427741Y-52032259D01*
X193040000Y-62863300D02*
X193040982Y-62863300D01*
X193040000Y-73660000D02*
X193040000Y-62863300D01*
X193040982Y-62863300D02*
X199427741Y-56476541D01*
X199427741Y-52032259D02*
X199427741Y-56476541D01*
%TO.N,/LFT-TRN*%
X194310000Y-56996300D02*
X187370600Y-63935700D01*
X194310000Y-52070000D02*
X194310000Y-56996300D01*
X185420000Y-114300000D02*
X186270100Y-114300000D01*
X195580000Y-50800000D02*
X194310000Y-52070000D01*
X187370600Y-63935700D02*
X187370600Y-113199500D01*
X187370600Y-113199500D02*
X186270100Y-114300000D01*
%TO.N,/Tacho Conversion/12V Out*%
X214196600Y-55880000D02*
X236203300Y-77886700D01*
X213360000Y-55880000D02*
X214196600Y-55880000D01*
X236203300Y-108527100D02*
X238760000Y-111083800D01*
X236203300Y-77886700D02*
X236203300Y-108527100D01*
X238760000Y-111083800D02*
X238760000Y-114300000D01*
%TO.N,/Speedo Conversion/SPD IN*%
X223379900Y-68439900D02*
X226060000Y-68439900D01*
X226060000Y-69515000D02*
X226060000Y-68439900D01*
X210820000Y-55880000D02*
X223379900Y-68439900D01*
%TO.N,/MPX Transciever/MPX-*%
X215900000Y-63500000D02*
X215900000Y-68580000D01*
X208280000Y-55880000D02*
X215900000Y-63500000D01*
%TO.N,Net-(J1-Pad20)*%
X86360000Y-45720000D02*
X87494500Y-46854500D01*
X87494500Y-46854500D02*
X87494500Y-55588900D01*
%TO.N,/Illumination Circuit/ILL-S*%
X195580000Y-76200000D02*
X195580000Y-64744600D01*
X200660000Y-59613800D02*
X200660000Y-55880000D01*
X195554600Y-64719200D02*
X200660000Y-59613800D01*
%TO.N,+12V*%
X162814000Y-67310000D02*
X170434000Y-67310000D01*
X160925200Y-65389500D02*
X160925200Y-61865200D01*
X160925200Y-61865200D02*
X154940000Y-55880000D01*
X162814000Y-67310000D02*
X162354300Y-66818600D01*
X81735100Y-123787000D02*
X84948100Y-127000000D01*
X193040000Y-55880000D02*
X182880000Y-45720000D01*
X170446650Y-58153350D02*
X182880000Y-45720000D01*
X236220000Y-114300000D02*
X236220000Y-121920000D01*
X81735100Y-123502500D02*
X81735100Y-123787000D01*
X88900000Y-127000000D02*
X84948100Y-127000000D01*
X170434000Y-67310000D02*
X170446650Y-67297350D01*
X182880000Y-121920000D02*
X182880000Y-114300000D01*
X162354300Y-66818600D02*
X160925200Y-65389500D01*
X78740000Y-139700000D02*
X78740000Y-136374900D01*
X84948100Y-127000000D02*
X84948100Y-130166800D01*
X182880000Y-79730700D02*
X170446650Y-67297350D01*
X210820000Y-121920000D02*
X210820000Y-114300000D01*
X182880000Y-114300000D02*
X182880000Y-79730700D01*
X79660000Y-123502500D02*
X81735100Y-123502500D01*
X170446650Y-67297350D02*
X170446650Y-58153350D01*
X84948100Y-130166800D02*
X78740000Y-136374900D01*
%TO.N,/Satellite Switch/RSEL*%
X108640000Y-45720000D02*
X107715100Y-46644900D01*
X107715100Y-46644900D02*
X107715100Y-55616000D01*
%TO.N,/Satellite Switch/LSEL*%
X133052000Y-47202000D02*
X134040000Y-46214000D01*
X133052000Y-55646600D02*
X133052000Y-47202000D01*
X152894000Y-46214000D02*
X157480000Y-50800000D01*
X134040000Y-46214000D02*
X152894000Y-46214000D01*
X134040000Y-45720000D02*
X134040000Y-46214000D01*
%TO.N,/Satellite Switch/SET*%
X120410800Y-46649200D02*
X120410800Y-55675000D01*
X121340000Y-45720000D02*
X120410800Y-46649200D01*
%TO.N,Net-(Q1-Pad2)*%
X224790000Y-109075100D02*
X223520000Y-107805100D01*
X224790000Y-114300000D02*
X224790000Y-109075100D01*
X223520000Y-106680000D02*
X223520000Y-107805100D01*
%TO.N,Net-(Q1-Pad3)*%
X228600000Y-106680000D02*
X226060000Y-109220000D01*
X226060000Y-114300000D02*
X226060000Y-121920000D01*
X226060000Y-109220000D02*
X226060000Y-114300000D01*
%TO.N,Net-(Q3-Pad2)*%
X139700000Y-139700000D02*
X138430000Y-138430000D01*
X138430000Y-138430000D02*
X138430000Y-134620000D01*
%TO.N,Net-(Q4-Pad3)*%
X153814900Y-134620000D02*
X152964800Y-135470100D01*
X142240000Y-127000000D02*
X142240000Y-127850100D01*
X152964800Y-135470100D02*
X149860000Y-135470100D01*
X149860000Y-135470100D02*
X142240000Y-127850100D01*
X149860000Y-139137400D02*
X149860000Y-135470100D01*
X154940000Y-134620000D02*
X153814900Y-134620000D01*
X149860000Y-139700000D02*
X149860000Y-139137400D01*
%TO.N,Net-(Q5-Pad2)*%
X148395100Y-120455100D02*
X147320000Y-119380000D01*
X151950000Y-119380000D02*
X151950000Y-120455100D01*
X151950000Y-120455100D02*
X148395100Y-120455100D01*
%TO.N,Net-(Q5-Pad3)*%
X157480000Y-119380000D02*
X157480000Y-127000000D01*
%TO.N,/MPX-R*%
X210820000Y-78740000D02*
X210820000Y-79865100D01*
X210820000Y-79865100D02*
X213360000Y-82405100D01*
X213360000Y-82405100D02*
X213360000Y-88900000D01*
%TO.N,Net-(Q6-Pad2)*%
X215900000Y-78740000D02*
X215900000Y-79865100D01*
X214630000Y-88900000D02*
X214630000Y-81135100D01*
X214630000Y-81135100D02*
X215900000Y-79865100D01*
%TO.N,Net-(Q7-Pad2)*%
X224790000Y-69515000D02*
X224790000Y-72549900D01*
X224790000Y-72549900D02*
X223520000Y-73819900D01*
X223520000Y-74945000D02*
X223520000Y-73819900D01*
%TO.N,Net-(Q8-Pad3)*%
X173145100Y-114300000D02*
X175260000Y-112185100D01*
X173145100Y-114300000D02*
X173145100Y-120369800D01*
X175260000Y-112185100D02*
X175260000Y-106680000D01*
X173145100Y-120369800D02*
X172720000Y-120794900D01*
X172720000Y-114300000D02*
X173145100Y-114300000D01*
X172720000Y-121920000D02*
X172720000Y-120794900D01*
%TO.N,Net-(Q10-Pad2)*%
X199390000Y-114300000D02*
X199390000Y-109075100D01*
X198120000Y-106680000D02*
X198120000Y-107805100D01*
X199390000Y-109075100D02*
X198120000Y-107805100D01*
%TO.N,Net-(Q10-Pad3)*%
X200660000Y-121920000D02*
X200660000Y-114300000D01*
X203200000Y-106680000D02*
X200660000Y-109220000D01*
X200660000Y-109220000D02*
X200660000Y-114300000D01*
%TO.N,/MPX-S*%
X162006300Y-80469100D02*
X161189200Y-81286200D01*
X141605000Y-113809900D02*
X137160000Y-118254900D01*
X161189200Y-81286200D02*
X160315900Y-81286200D01*
X141605000Y-99997100D02*
X141605000Y-113809900D01*
X137160000Y-119380000D02*
X137160000Y-118254900D01*
X162006300Y-80097500D02*
X162006300Y-80469100D01*
X163195000Y-80097500D02*
X162006300Y-80097500D01*
X160315900Y-81286200D02*
X141605000Y-99997100D01*
%TO.N,/LFT-T*%
X165106200Y-91446200D02*
X170180000Y-96520000D01*
X162660800Y-91446200D02*
X165106200Y-91446200D01*
X161843700Y-90257500D02*
X161843700Y-90629100D01*
X160655000Y-90257500D02*
X161843700Y-90257500D01*
X161843700Y-90629100D02*
X162660800Y-91446200D01*
%TO.N,Net-(Q9-Pad2)*%
X185420000Y-107805100D02*
X184150000Y-109075100D01*
X184150000Y-109075100D02*
X184150000Y-114300000D01*
X185420000Y-106680000D02*
X185420000Y-107805100D01*
%TO.N,Net-(Q11-Pad2)*%
X213360000Y-107805100D02*
X212090000Y-109075100D01*
X213360000Y-106680000D02*
X213360000Y-107805100D01*
X212090000Y-109075100D02*
X212090000Y-114300000D01*
%TD*%
M02*
